PathFileType	4	(X/Y/Z)	C:\Users\Basilio\Documents\Thesis Gigler\squatting_fais\c3dfiles\041\SJ_pre3\markers_experimental.trc
DataRate	CameraRate	NumFrames	NumMarkers	Units	OrigDataRate	OrigDataStartFrame	OrigNumFrames
200.000000	200.000000	4	62	mm	200.000000	839	1679
Frame#	Time	FHD			LBHD			RBHD			C7			T10			CLAV			LSHO			LUUPA			LMUPA			LDUPA			LLEP			LMEP			LRAD			LUL			LRFIN			RSHO			RUPA1			RMUPA			RDUPA			RLEP			RMEP			RRAD			RUL			RUFIN			LASI			RASI			USACR			LSACR			RSACR			LTHI1			LTHI2			LTHI3			LTHI4			LLFC			LMFC			LTIB1			LTIB2			LTIB3			LTIB4			LLMAL			LMMAL			LHEE			LMT1			LMT2			LMT5			RTHI			RTHI2			RTHI3			RTHI4			RLFC			RMFC			RTIB1			RTIB2			RTIB3			RTIB4			RLMAL			RMMAL			RHEE			RMT1			RMT2			RMT5			*61			
		X1	Y1	Z1	X2	Y2	Z2	X3	Y3	Z3	X4	Y4	Z4	X5	Y5	Z5	X6	Y6	Z6	X7	Y7	Z7	X8	Y8	Z8	X9	Y9	Z9	X10	Y10	Z10	X11	Y11	Z11	X12	Y12	Z12	X13	Y13	Z13	X14	Y14	Z14	X15	Y15	Z15	X16	Y16	Z16	X17	Y17	Z17	X18	Y18	Z18	X19	Y19	Z19	X20	Y20	Z20	X21	Y21	Z21	X22	Y22	Z22	X23	Y23	Z23	X24	Y24	Z24	X25	Y25	Z25	X26	Y26	Z26	X27	Y27	Z27	X28	Y28	Z28	X29	Y29	Z29	X30	Y30	Z30	X31	Y31	Z31	X32	Y32	Z32	X33	Y33	Z33	X34	Y34	Z34	X35	Y35	Z35	X36	Y36	Z36	X37	Y37	Z37	X38	Y38	Z38	X39	Y39	Z39	X40	Y40	Z40	X41	Y41	Z41	X42	Y42	Z42	X43	Y43	Z43	X44	Y44	Z44	X45	Y45	Z45	X46	Y46	Z46	X47	Y47	Z47	X48	Y48	Z48	X49	Y49	Z49	X50	Y50	Z50	X51	Y51	Z51	X52	Y52	Z52	X53	Y53	Z53	X54	Y54	Z54	X55	Y55	Z55	X56	Y56	Z56	X57	Y57	Z57	X58	Y58	Z58	X59	Y59	Z59	X60	Y60	Z60	X61	Y61	Z61	X62	Y62	Z62	

840	4.195	14.44949531555176	1241.576293945313	-926.4040527343752	-163.9733123779297	1180.302124023438	-1003.072570800781	-142.8705444335938	1181.760375976563	-849.7415771484377	-224.0055847167969	1095.558715820313	-936.245300292969	-443.7854003906251	888.681091308594	-937.086120605469	-115.6976928710938	958.9702148437502	-939.0194091796877	-146.1630096435547	1042.450561523438	-1106.469116210938	-261.7677917480469	981.5166625976565	-1255.109375	-280.4588317871094	936.3909912109377	-1255.479736328125	-312.6909790039063	962.1995849609377	-1299.690063476563	-354.1228027343751	938.2885742187502	-1326.273071289063	-425.4197387695314	963.383483886719	-1272.490356445313	-466.257293701172	772.299255371094	-1143.600952148438	-476.2735900878907	720.9196777343751	-1198.974853515625	-434.2471618652345	731.1884765625001	-1105.44091796875	-134.4423980712891	1029.143310546875	-771.1481933593752	-229.894027709961	940.8403320312502	-591.6555175781251	-224.0889129638672	892.8692016601565	-607.7567138671876	-256.9496765136719	881.9376220703127	-561.1701660156251	-287.2231140136719	843.1638793945315	-545.4351196289064	-364.8461303710938	893.3928833007815	-566.0600585937501	-472.3374328613282	749.5463867187501	-706.8221435546876	-438.3459472656251	737.2205200195314	-758.4266357421876	-454.6820373535157	681.8313598632814	-671.9542846679689	-412.6647033691407	666.7037353515626	-1039.723876953125	-417.9160156250001	678.8394775390626	-828.0731201171877	-543.1146240234376	811.1306152343752	-938.7944335937502	-574.2465820312501	799.164489746094	-965.7460937500002	-572.7492675781251	797.154968261719	-909.9912719726565	-485.7536621093751	572.6566772460939	-1154.28955078125	-401.2406311035157	569.5999755859376	-1168.29345703125	-376.7921752929688	608.0722656250001	-1153.392578125	-367.9062805175782	519.4965820312501	-1176.321533203125	-213.133041381836	452.0252685546876	-1193.21044921875	-188.5071868896485	422.0560607910157	-1088.63134765625	-240.6413269042969	267.4909362792969	-1160.349731445313	-311.5752563476563	257.9434814453126	-1220.32666015625	-278.0510559082032	238.9986114501954	-1197.126220703125	-308.4061889648438	164.1139678955078	-1170.882934570313	-405.8137207031251	102.7314834594727	-1212.645385742188	-362.5141906738282	101.1591262817383	-1133.275634765625	-470.2178649902345	55.39850234985353	-1178.414428710938	-252.3556060791016	57.79842758178712	-1164.235595703125	-247.7540740966797	58.53884887695314	-1209.0546875	-291.4024353027344	37.97487258911134	-1264.489013671875	-424.0064392089845	548.8854370117189	-722.3424072265626	-357.9239807128907	556.9783935546876	-715.1375122070314	-341.0047607421876	584.3523559570314	-723.5167236328126	-302.0279846191407	491.1335449218751	-713.2059936523439	-212.970443725586	437.6389465332032	-706.2799072265626	-187.7302551269532	417.7850646972657	-816.986267089844	-232.0706024169922	281.6386413574219	-711.6699829101564	-341.0057983398438	247.5479736328126	-696.5861206054689	-298.0909423828126	227.0484008789063	-700.1115112304689	-300.1773986816407	174.8521881103516	-726.4400634765626	-400.1228942871095	93.74011230468751	-709.6083374023439	-367.6917114257813	99.74444580078128	-790.0382080078127	-463.8110656738282	50.13609313964845	-756.7515869140626	-244.935775756836	52.84963989257814	-751.7032470703126	-246.3619537353516	56.9354705810547	-699.9002685546876	-292.7324829101563	36.40054321289063	-652.9456787109376	-4216.580566406251	853.0466308593752	-3944.743408203126	
841	4.2	14.27133750915528	1242.007080078125	-926.291687011719	-164.198715209961	1180.777465820313	-1003.126586914063	-143.1002502441407	1182.208984375	-849.7037353515627	-224.1200866699219	1096.017944335938	-936.2845458984377	-443.706756591797	889.0090332031252	-937.1120605468752	-115.5055084228516	959.4892578125002	-939.0197753906252	-146.1130523681641	1042.790771484375	-1106.447631835938	-261.9573364257813	982.0656738281252	-1255.160278320313	-280.5627136230469	936.8803710937502	-1255.5029296875	-312.8195190429688	962.637145996094	-1299.732177734375	-353.7532348632813	938.716979980469	-1326.697998046875	-425.6431884765626	963.9282226562502	-1272.521118164063	-466.1124877929689	772.5850219726565	-1143.701171875	-476.1299438476564	721.2426147460939	-1199.043701171875	-434.1622924804689	731.4989013671876	-1105.474731445313	-134.6594390869141	1029.68994140625	-771.0808715820315	-230.0304412841797	941.2571411132815	-591.7364501953126	-223.9861297607422	893.182067871094	-607.8141479492189	-256.8651428222657	882.3549804687502	-561.2155761718751	-287.1837158203126	843.650085449219	-545.5452270507814	-364.8959045410157	893.711364746094	-566.1273803710939	-472.2597656250001	749.8490600585939	-706.8590087890626	-438.1072998046876	737.5270996093751	-758.5806884765626	-454.7413330078126	681.8828735351564	-672.0006713867189	-412.9793090820314	666.6998901367189	-1039.857177734375	-417.9643554687501	678.9410400390626	-828.250183105469	-543.0382080078126	811.4396972656252	-938.8655395507815	-574.1714477539064	799.4685668945315	-965.7742309570315	-572.7500610351564	797.5723876953127	-909.977966308594	-485.6914978027345	572.9324951171876	-1154.235107421875	-401.2657775878907	569.8591918945314	-1168.275512695313	-376.7507324218751	608.2486572265626	-1153.362670898438	-367.8912048339844	519.7032470703126	-1176.363159179688	-213.1229400634766	452.0748291015626	-1193.119506835938	-188.6248474121094	422.1514282226564	-1088.609252929688	-240.6421203613282	267.5097045898438	-1160.267822265625	-311.2943115234376	257.8031005859376	-1220.246459960938	-278.1518859863282	238.9841918945313	-1196.994262695313	-308.3987731933594	164.154037475586	-1170.864135742188	-405.801483154297	102.7497024536133	-1212.63232421875	-362.4852905273438	101.1859436035157	-1133.292602539063	-470.2078552246095	55.41109085083009	-1178.421508789063	-252.4382324218751	57.8035125732422	-1164.147705078125	-247.6708526611329	58.60900878906251	-1209.123657226563	-291.4129028320313	37.99684143066407	-1264.477783203125	-424.0567932128907	549.1333007812501	-722.4219360351564	-357.8150939941407	557.0870971679689	-715.3723754882814	-340.9834289550782	584.4677124023439	-723.5937500000001	-302.1039123535157	491.188446044922	-713.3312988281251	-212.9926452636719	437.674041748047	-706.4397583007814	-187.792953491211	417.7827453613282	-817.139343261719	-232.1349792480469	281.7160644531251	-711.7156372070314	-341.0862121582032	247.6282806396485	-696.6638793945314	-298.1103210449219	227.0782928466797	-700.1557617187501	-300.1596679687501	174.8739776611328	-726.4705200195314	-400.1445922851564	93.73519134521486	-709.6354370117189	-367.7192077636719	99.76776885986331	-790.0725708007815	-463.8050537109376	50.11337280273439	-756.7430419921876	-244.8964843750001	52.8202247619629	-751.7086181640626	-246.3820953369141	56.92271041870119	-699.9134521484376	-292.7482604980469	36.38557052612305	-652.9852294921876	-4216.887695312501	853.083435058594	-3944.712402343751	
842	4.205	13.83617591857911	1242.939819335938	-926.304870605469	-164.3746337890625	1181.314331054688	-1003.186767578125	-143.2339782714844	1182.752685546875	-849.7899169921877	-224.2403869628907	1096.5419921875	-936.2808837890627	-443.6907348632814	889.3800048828127	-937.1465454101565	-115.4705047607422	960.0187988281252	-938.9722900390627	-146.7249450683594	1043.47216796875	-1106.499145507813	-262.0736389160157	982.6322021484377	-1255.19287109375	-280.7672729492188	937.3310546875002	-1255.493896484375	-312.9724426269532	963.0288696289065	-1299.763305664063	-353.7438659667969	939.2100219726565	-1326.662353515625	-425.8842163085939	964.4102783203127	-1272.51953125	-465.4377746582032	772.685485839844	-1143.738159179688	-476.0855712890626	721.5794677734376	-1199.103515625	-434.0183105468751	731.7794189453126	-1105.527465820313	-134.7720489501953	1030.2001953125	-771.0020751953127	-229.8542785644532	941.5310668945315	-591.5489501953126	-223.968246459961	893.4560546875002	-607.8888549804689	-256.8240356445313	882.6128540039065	-561.3140258789064	-287.1463012695313	844.0222778320315	-545.7162475585939	-364.8351135253907	894.0144653320315	-566.2595825195314	-472.2052001953126	750.1293945312501	-706.9287719726564	-438.0540771484376	737.7484130859376	-758.7105102539064	-454.6377563476564	682.1150512695314	-672.0699462890626	-413.3590698242189	666.4974365234376	-1039.940063476563	-418.0230102539064	679.0072631835939	-828.372497558594	-542.9609985351564	811.778747558594	-938.8972778320315	-574.1097412109376	799.7366943359377	-965.8223876953127	-572.4764404296876	797.9125976562502	-909.9448242187502	-485.6427612304689	573.1488647460939	-1154.218139648438	-401.2025146484376	570.0764770507814	-1168.243896484375	-376.6789245605469	608.4193725585939	-1153.364868164063	-367.8938293457032	519.9201660156251	-1176.3125	-213.1886596679688	452.1078186035157	-1193.082397460938	-188.5953521728516	422.2132263183595	-1088.50732421875	-240.6564941406251	267.5323181152344	-1160.22216796875	-311.3035278320313	257.8248901367188	-1220.267578125	-278.1917419433594	238.9756622314454	-1196.958129882813	-308.4208068847657	164.1695861816407	-1170.853637695313	-405.7750854492189	102.7463836669922	-1212.649291992188	-362.4969177246094	101.1846466064453	-1133.29052734375	-470.2183227539064	55.43492126464845	-1178.42529296875	-252.4942932128907	57.71530914306642	-1164.1884765625	-247.7000122070313	58.56144332885744	-1209.059936523438	-291.6301574707032	37.77475738525391	-1264.153442382813	-424.0144042968751	549.2985229492189	-722.5417480468751	-357.6576232910157	557.3788452148439	-715.7570800781251	-340.9178466796876	584.6265258789064	-723.7694702148439	-302.0802917480469	491.3348083496095	-713.4729614257814	-213.0542297363282	437.7517395019532	-706.6309204101564	-187.7783508300782	417.8345642089845	-817.3596191406252	-232.2397460937501	281.7995910644532	-711.8464355468751	-341.1056823730469	247.6995849609376	-696.7885131835939	-298.1644897460938	227.0972747802735	-700.2337646484376	-300.1785888671876	174.8973999023438	-726.6211547851564	-400.168426513672	93.76969146728517	-709.6484985351564	-367.7106933593751	99.76235961914065	-790.0686035156252	-463.7385864257814	50.13521194458009	-756.7810668945314	-244.924057006836	52.83111953735353	-751.6917114257814	-246.4065399169922	56.92531585693361	-699.9327392578126	-292.7582092285157	36.40713119506837	-652.9285278320314	-4216.858886718751	853.1873779296877	-3944.793457031251	
843	4.21	13.59812831878662	1243.718627929688	-926.5167236328127	-164.2996215820313	1181.7265625	-1003.198547363281	-143.5531311035157	1183.314697265625	-849.795593261719	-224.3170318603516	1096.8701171875	-936.3415527343752	-443.6547241210939	889.589050292969	-937.1252441406252	-115.523178100586	960.5720214843752	-938.930358886719	-146.9873504638672	1044.080078125	-1106.401245117188	-262.1702270507813	983.2209472656252	-1255.267333984375	-280.8798217773438	937.8933715820315	-1255.479125976563	-313.0318298339844	963.5215454101565	-1299.818969726563	-354.3333435058594	939.5979614257815	-1326.332397460938	-426.0500488281251	964.7462158203127	-1272.441650390625	-465.2886657714845	772.9458007812502	-1143.8349609375	-475.8724365234376	721.8917846679689	-1199.129638671875	-433.9571533203126	732.1312866210939	-1105.6337890625	-134.7989654541016	1030.798828125	-771.0549316406252	-229.9352264404297	941.807800292969	-591.6159057617189	-223.9815826416016	894.1340942382815	-607.9963989257814	-256.8933410644532	882.8884887695315	-561.4039916992189	-287.1613769531251	844.4046020507815	-545.7489013671876	-364.7685241699219	894.112976074219	-566.1016235351564	-472.1034545898439	750.3812255859376	-706.9223632812501	-437.8172607421876	738.0042114257814	-758.8233032226564	-454.560272216797	682.5828247070314	-672.0086059570314	-413.052215576172	667.2081298828126	-1040.039672851563	-417.9846191406251	679.2850341796876	-828.5198974609377	-542.9746093750001	812.2145996093752	-938.9392089843752	-573.8230590820314	800.0415039062502	-965.8164062500002	-572.6789550781251	798.4309692382815	-910.078063964844	-485.6018371582032	573.4162597656251	-1154.34033203125	-401.2133178710939	570.2725830078126	-1168.258178710938	-377.0339355468751	608.8167724609376	-1153.454833984375	-367.9020385742188	519.9691772460939	-1176.231079101563	-213.1827239990235	452.1312866210939	-1192.957641601563	-188.5807037353516	422.2828674316407	-1088.167602539063	-240.6507415771485	267.5713806152344	-1160.192749023438	-311.2805175781251	257.8036499023438	-1220.263549804688	-278.1295776367188	238.9954223632813	-1196.940551757813	-308.4543762207032	164.1441192626953	-1170.798095703125	-405.823211669922	102.7592010498047	-1212.654663085938	-362.5075073242188	101.2033462524414	-1133.291748046875	-470.2076721191407	55.35214614868165	-1178.3896484375	-252.3743591308594	57.81218338012697	-1164.164916992188	-247.8142700195313	58.53577423095705	-1209.071655273438	-291.4334411621094	38.00582122802735	-1264.478393554688	-423.9690551757814	549.4506225585939	-722.7191162109376	-357.7027587890626	557.6052856445314	-715.8932495117189	-340.8674011230469	584.8540039062501	-723.9284057617189	-302.1620178222657	491.4786071777345	-713.7107543945314	-213.0698242187501	437.8909301757814	-706.8135375976564	-187.8327178955078	417.9259643554689	-817.558044433594	-232.2631988525391	281.8093872070313	-711.9086914062501	-341.1330261230469	247.7282104492188	-696.8739624023439	-298.1885070800782	227.1281127929688	-700.2889404296876	-300.1900024414063	174.926498413086	-726.7348632812501	-400.143280029297	93.74243164062501	-709.6531372070314	-367.6935424804688	99.73317718505862	-790.113464355469	-463.8038330078126	50.14385986328126	-756.7572631835939	-244.9415893554688	52.8406105041504	-751.7171630859376	-246.3486480712891	56.93234252929689	-699.8604125976564	-292.7670898437501	36.41834259033204	-652.9308471679689	-4216.798828125001	853.110046386719	-3944.631591796876	
